
<svg width="86px" height="93px" viewBox="0 0 86 93" version="1.1" xmlns="http://www.w3.org/2000/svg" xmlns:xlink="http://www.w3.org/1999/xlink">
    <!-- Generator: Sketch 43.2 (39069) - http://www.bohemiancoding.com/sketch -->
    <desc>Created with Sketch.</desc>
    <defs></defs>
    <g id="Home" stroke="none" stroke-width="1" fill="none" fill-rule="evenodd">
        <g transform="translate(-199.000000, -21.000000)" id="nav-state" fill-rule="nonzero" fill="#FFFFFF">
            <g transform="translate(-17.000000, 0.000000)">
                <g id="-" transform="translate(216.000000, 0.000000)">
                    <g id="nafcu-logo-02" transform="translate(0.000000, 21.000000)">
                        <g id="Layer_1">
                            <polygon id="Shape" points="14.2410053 84.9021429 7.64908774 73.8403571 3.57468642 73.8403571 3.57468642 91.7507143 7.36752342 91.7507143 7.36752342 80.4875 14.1085045 91.7507143 18.0504049 91.7507143 18.0504049 73.8403571 14.2410053 73.8403571"></polygon>
                            <path d="M25.9673311,73.8571429 L19.5410396,91.7507143 L23.7976296,91.7507143 L24.9073242,88.125 L30.8036123,88.125 L31.9629948,91.7507143 L36.2858352,91.7507143 L29.9423567,73.8571429 L25.9673311,73.8571429 Z M25.9673311,84.7846429 L27.8057804,79.0775 L29.6607924,84.7846429 L26.0335815,84.7846429 L25.9673311,84.7846429 Z" id="Shape"></path>
                            <polygon id="Shape" points="37.7764699 74.1089286 37.7764699 91.7507143 41.7018077 91.7507143 41.7018077 84.4992857 48.177787 84.4992857 48.177787 80.8903571 41.7018077 80.8903571 41.7018077 77.4660714 48.3434131 77.4660714 48.3434131 73.8403571 37.7764699 73.8403571"></polygon>
                            <path d="M61.79225,85.6071429 C61.3657744,87.2686176 59.9079866,88.4450857 58.2147269,88.4942857 C55.597835,88.4942857 53.9415743,86.4632143 53.9084491,82.8542857 C53.8421986,79.6482143 55.4984593,77.2142857 58.1319138,77.2142857 C59.9902928,77.1625268 61.5891284,78.5369502 61.8419378,80.4035714 L61.8419378,80.6217857 L62.1235021,80.6217857 L65.8666513,80.37 L65.8666513,80.0678571 C65.3848285,76.188939 62.0156903,73.3545183 58.1650391,73.5885714 C53.2956326,73.5885714 49.8837356,77.5164286 49.8837356,82.8710714 C49.7708518,85.3513028 50.594017,87.7820418 52.1859379,89.6692857 C53.7411436,91.279254 55.8936787,92.1506477 58.1153512,92.0696429 L58.1153512,92.0696429 C61.77579,92.1067024 64.973578,89.569768 65.8169635,85.9596429 L65.8997765,85.6071429 L61.8585004,85.3217857 L61.79225,85.6071429 Z" id="Shape"></path>
                            <path d="M78.4542326,73.8571429 L78.4542326,84.3146429 C78.4542326,87.1346429 77.3114127,88.4439286 74.9926478,88.4607143 C72.6738828,88.4775 71.5641881,87.1346429 71.5310629,84.3146429 L71.5310629,73.8571429 L67.605725,73.8571429 L67.605725,84.2642857 C67.3771047,87.0885909 68.7345014,89.8033318 71.1169767,91.2866536 C73.4994519,92.7699753 76.5024062,92.7699753 78.8848815,91.2866536 C81.2673568,89.8033318 82.6247534,87.0885909 82.3961331,84.2642857 L82.3961331,73.8571429 L78.4542326,73.8571429 Z" id="Shape"></path>
                            <path d="M49.867173,25.3632143 C50.1522686,25.3271291 50.3861423,25.1171233 50.4558253,24.8346365 C50.5255083,24.5521498 50.4166619,24.2553098 50.1818625,24.0875 C49.6867082,23.6284116 49.1288953,23.2439893 48.5256018,22.9460714 L48.0452862,22.6439286 C47.9901243,21.7863022 47.5429078,21.0039964 46.8362159,20.5289286 L46.8362159,16.5842857 C47.3020592,16.1820562 47.6704056,15.6766542 47.9127853,15.1071429 C48.0490223,14.9829883 48.1268271,14.8060404 48.1268271,14.6203571 C48.1268271,14.4346739 48.0490223,14.2577259 47.9127853,14.1335714 C47.5226187,13.6926392 47.0173234,13.3725755 46.4552759,13.2103571 L46.1240238,12.9417857 C45.871516,12.2477502 45.3999008,11.6576661 44.7824526,11.2632143 C44.7824526,9.90357143 45.0474543,9.01392857 44.4512005,8.19142857 C44.0779022,7.5456008 44.1303845,6.73446477 44.5837013,6.14357143 L44.5837013,6.14357143 L43.9874475,5.25392857 C44.7136606,3.82154189 44.5035832,2.08501679 43.4574441,0.872857143 L43.1924423,0.621071429 L42.8777528,0.906428571 C41.9164888,2.12427238 41.7176523,3.78839526 42.364312,5.20357143 L41.8011834,6.11 L41.8011834,6.11 C42.2545002,6.70089335 42.3069825,7.51202937 41.9336842,8.15785714 C41.3208678,8.98035714 41.6686825,9.83642857 41.6024321,11.2296429 C40.9849839,11.6240947 40.5133687,12.2141788 40.2608609,12.9082143 L39.9130462,13.1935714 C39.3700984,13.357969 38.8827684,13.6717373 38.5052246,14.1 C38.3777874,14.229077 38.3061876,14.404189 38.3061876,14.5867857 C38.3061876,14.7693824 38.3777874,14.9444945 38.5052246,15.0735714 C38.7370584,15.6263253 39.0879117,16.1195485 39.5321062,16.5171429 L39.5321062,20.4785714 C38.8273176,20.9554522 38.3806964,21.7367169 38.3230359,22.5935714 L38.3230359,22.5935714 C37.5721836,22.7973216 36.8869933,23.1966132 36.335523,23.7517857 C36.1106003,23.9531328 35.9979579,24.253834 36.0343659,24.5557305 C36.0707739,24.857627 36.2515608,25.1219815 36.5177117,25.2625 C26.0667067,29.7778571 26.0004563,39.3289286 26.0004563,39.3289286 L26.0004563,39.3289286 C24.6896627,39.8920472 23.7024539,41.0284255 23.317314,42.4175 C22.7606051,42.7340594 22.2434557,43.1172838 21.7769915,43.5589286 C21.4604192,43.9613714 21.3435183,44.4887595 21.4598337,44.9897588 C21.576149,45.490758 21.9128224,45.9099851 22.3732454,46.1271429 L22.3732454,52.1867857 C20.7638673,52.8910362 19.3232932,53.9387862 18.1497806,55.2585714 C17.6457161,55.6820556 17.4131066,56.3527017 17.5448433,57.0026909 C17.67658,57.65268 18.1511974,58.176101 18.7791596,58.3639286 L18.7791596,64.8935714 L18.7791596,64.8935714 L18.7791596,66.0685714 C18.7263181,66.6880846 18.483015,67.2751811 18.0835301,67.7471429 C17.8438452,67.8855345 17.6116369,68.0368221 17.3879007,68.2003571 L1.76936226,68.2003571 C1.44008779,68.2208729 1.13391047,68.3787128 0.923643585,68.6363403 C0.713376696,68.8939678 0.61780891,69.2283623 0.65966759,69.56 C0.620543616,69.8777746 0.721144994,70.1969243 0.934806448,70.4328555 C1.1484679,70.6687866 1.45361369,70.7976749 1.76936226,70.7853571 L84.2511451,70.7853571 C84.5746527,70.7759987 84.8780086,70.623974 85.0817335,70.3691136 C85.2854584,70.1142532 85.3692489,69.7819567 85.3111519,69.4592857 C85.3587382,69.150739 85.2735868,68.8363165 85.0772549,68.595619 C84.880923,68.3549215 84.5922327,68.2110243 84.2842703,68.2003571 L69.377924,68.2003571 L69.1957353,68.2003571 C68.9466684,68.0991603 68.7125814,67.9635944 68.5001058,67.7975 C68.0976786,67.4041493 67.825678,66.8938765 67.7216633,66.3371429 L67.7216633,58.4478571 C67.9701024,58.4478571 70.0404283,57.9778571 68.367605,55.3257143 C67.1710519,53.9187873 65.683975,52.7956189 64.0116393,52.0357143 L64.0116393,45.9592857 C64.467073,45.8110485 64.8170775,45.4385825 64.9409541,44.9703323 C65.0648308,44.5020822 64.9456291,44.00212 64.6244558,43.6428571 C64.2382439,43.2762564 63.8165224,42.9500809 63.3656977,42.6692857 C63.0181558,41.1901754 61.9883903,39.9715573 60.5997423,39.3960714 L60.4672414,39.3960714 C59.9208818,33.0245671 55.7802246,27.5515266 49.8506104,25.3632143 L49.8506104,25.3632143 L49.867173,25.3632143 Z M26.9445249,55.0739286 C27.0085931,54.2064691 27.6664511,53.5046589 28.5179725,53.3953571 C28.8705743,53.3168966 29.2394946,53.389563 29.537431,53.5961602 C29.8353674,53.8027575 30.0358443,54.1249266 30.0914202,54.4864286 L30.0914202,64.6921429 C28.9982882,64.8096429 27.9548439,64.9439286 26.9610875,65.095 L26.9610875,55.0235714 L26.9445249,55.0739286 Z M37.180216,41.36 C38.0198323,41.2920003 38.7576411,41.9201082 38.8364767,42.77 L38.8364767,48.9135714 C37.8095951,48.9135714 36.6999004,49.0478571 35.5239553,49.1317857 L35.5239553,42.9378571 C35.6093223,42.0769157 36.3264499,41.4228067 37.180216,41.4271429 L37.180216,41.36 Z M50.960305,42.9210714 L50.960305,49.1821429 L47.8299723,48.9807143 L47.8299723,42.6357143 C47.956784,41.8726184 48.6432028,41.3380545 49.40342,41.4103571 C50.2197014,41.4468245 50.8877822,42.0811418 50.9768676,42.9042857 L50.960305,42.9210714 Z M32.840813,53.7142857 C32.987459,52.9441793 33.6407624,52.3796487 34.4142606,52.3546429 C34.7784982,52.2488645 35.1700949,52.3082985 35.4877783,52.5175743 C35.8054617,52.7268501 36.0180341,53.0654161 36.0705213,53.4457143 L36.0705213,64.2725 L32.9401886,64.4739286 L32.9401886,53.7142857 L32.840813,53.7142857 Z M43.4243188,41.2089286 C44.183901,41.1183286 44.8785026,41.6518548 44.9977665,42.4175 L44.9977665,48.8296429 L43.3415058,48.8296429 L43.2255676,48.8296429 L41.7680581,48.8296429 L41.7680581,42.4342857 C41.8953363,41.6347366 42.6341319,41.0881509 43.4243188,41.2089286 L43.4243188,41.2089286 Z M59.6887989,65.2125 C58.6950425,65.0614286 57.6350356,64.9103571 56.5584662,64.7928571 L56.5584662,54.52 C56.6109534,54.1397018 56.8235259,53.8011358 57.1412092,53.59186 C57.4588926,53.3825842 57.8504893,53.3231502 58.2147269,53.4289286 C59.0662484,53.5382303 59.7241064,54.2400405 59.7881745,55.1075 L59.7881745,65.1789286 L59.6887989,65.2125 Z M50.5296772,64.2892857 L50.5296772,53.4457143 C50.5821645,53.0654161 50.7947369,52.7268501 51.1124203,52.5175743 C51.4301037,52.3082985 51.8217004,52.2488645 52.1859379,52.3546429 C52.9594361,52.3796487 53.6127396,52.9441793 53.7593856,53.7142857 L53.7593856,64.5242857 L50.5296772,64.2892857 L50.5296772,64.2892857 Z M44.6333891,64.1046429 L44.6333891,53.2946429 C44.7154976,52.62428 45.2453258,52.1012619 45.9087099,52.0357143 L46.6540272,52.0357143 C47.24625,52.1284947 47.705938,52.6080773 47.7802845,53.2107143 L47.7802845,64.1046429 L44.6499518,64.1046429 L44.6333891,64.1046429 Z M38.7536637,64.1046429 L38.7536637,53.2946429 C38.8809418,52.4950937 39.6197374,51.948508 40.4099244,52.0692857 C41.1695065,51.9786857 41.8641081,52.512212 41.983372,53.2778571 L41.983372,64.1046429 L38.8530393,64.1046429 L38.7536637,64.1046429 Z M62.6203803,65.6992857 L62.6203803,56.0307143 C62.6928433,55.7254304 62.8879348,55.4647484 63.1584685,55.3117189 C63.4290021,55.1586894 63.7503413,55.1272482 64.0447645,55.225 C64.8470452,55.3805728 65.4374663,56.076357 65.4691487,56.9035714 L65.4691487,66.505 C64.6078932,66.2364286 63.6638246,66.0014286 62.6369429,65.7832143 L62.6203803,65.6992857 Z M56.690967,43.7771429 L56.690967,49.8703571 C55.8462741,49.7025 54.8359551,49.5682143 53.7593856,49.4507143 L53.7593856,43.24 C53.7970536,42.8977677 53.9851583,42.5910611 54.2712851,42.4053429 C54.5574119,42.2196247 54.9109758,42.1747468 55.2334576,42.2832143 C56.0047408,42.3734193 56.6106815,42.9945008 56.690967,43.7771429 L56.690967,43.7771429 Z M31.366741,42.2832143 C31.6892228,42.1747468 32.0427867,42.2196247 32.3289135,42.4053429 C32.6150403,42.5910611 32.803145,42.8977677 32.840813,43.24 L32.840813,49.4675 C31.7642435,49.585 30.7539245,49.7360714 29.9092315,49.9039286 L29.9092315,43.7939286 C29.9895171,43.0112865 30.5954578,42.390205 31.366741,42.3 L31.366741,42.2832143 Z M21.2469881,56.8867857 C21.235136,56.0606269 21.8182724,55.3485888 22.6216845,55.2082143 C22.9097211,55.1162804 23.2226141,55.1511788 23.48403,55.3043956 C23.745446,55.4576124 23.9313471,55.7150589 23.9963808,56.0139286 L23.9963808,65.6657143 C23.0026244,65.8839286 22.091681,66.1189286 21.2635507,66.3875 L21.2635507,56.8532143 L21.2469881,56.8867857 Z M59.4569224,50.4914286 L59.4569224,44.7339286 C59.4788955,44.4087459 59.6453526,44.1112591 59.9094312,43.9252196 C60.1735097,43.73918 60.5066475,43.6847094 60.8150562,43.7771429 C61.5714346,44.0498839 62.0889937,44.7603245 62.1235021,45.5732143 L62.1235021,51.3475 C61.1794335,50.995 60.2519275,50.7264286 59.4072346,50.5082143 L59.4569224,50.4914286 Z M24.4435712,45.5732143 C24.4924033,44.7535872 25.0311769,44.047742 25.801705,43.7939286 C26.1101137,43.7014951 26.4432515,43.7559657 26.70733,43.9420053 C26.9714086,44.1280448 27.1378657,44.4255316 27.1598388,44.7507143 L27.1598388,50.525 C26.3151458,50.7432143 25.3876398,51.0117857 24.4435712,51.3642857 L24.4435712,45.5732143 L24.4435712,45.5732143 Z" id="Shape"></path>
                        </g>
                    </g>
                </g>
            </g>
        </g>
    </g>
</svg>
