<svg id="Layer_1" data-name="Layer 1" xmlns="http://www.w3.org/2000/svg" width="179.9" height="25.84" viewBox="0 0 179.9 25.84"><defs><style>.cls-1{fill:#fff;}</style></defs><title>nafcu-logo-text</title><g id="Home"><g id="nav-state"><g id="_-" data-name="-"><g id="nafcu-logo-02"><g id="Layer_1-2" data-name="Layer 1"><polygon id="Shape" class="cls-1" points="0 0.24 2.7 0.24 5.9 7.14 5.9 0.24 7.5 0.24 7.5 8.94 5.1 8.94 1.8 1.74 1.8 8.94 0.1 8.94 0.1 0.24 0 0.24"/><path id="Shape-2" data-name="Shape" class="cls-1" d="M29,9.7V8.9a2.47,2.47,0,0,1-1.6,1,2.38,2.38,0,0,1-1.8-.5,2.11,2.11,0,0,1-.5-1.3,2.05,2.05,0,0,1,1.3-1.9,5,5,0,0,1,2.4-.3V5.1a.79.79,0,0,0-.8-.5.91.91,0,0,0-.7.3.9.9,0,0,0-.1.5H25.5A1.51,1.51,0,0,1,26.2,4,3.74,3.74,0,0,1,28,3.5a2.65,2.65,0,0,1,2.1.8,2.6,2.6,0,0,1,.4,1.5V8.3a7.57,7.57,0,0,0,.1,1.5L29,9.7ZM26.8,7.8a1.07,1.07,0,0,0,.2.6c.2.2.4.3.6.2a.67.67,0,0,0,.7-.4,2,2,0,0,0,.3-1.5c-1,.1-1.8.4-1.8,1.1Z" transform="translate(-16.1 -0.76)"/><path id="Shape-3" data-name="Shape" class="cls-1" d="M35.6,9.6a5.9,5.9,0,0,1-1.4.2,1.25,1.25,0,0,1-1.3-.4,1.57,1.57,0,0,1-.4-1.3V4.7H31.3V3.5h1.2V2.4l1.7-.7V3.5h1.4V4.7H34.2V7.4c0,.6,0,.9.8.9h.6V9.6Z" transform="translate(-16.1 -0.76)"/><path id="Shape-4" data-name="Shape" class="cls-1" d="M36.7,1h1.9V2.5H36.7Zm0,2.6h1.8V9.7H36.7Z" transform="translate(-16.1 -0.76)"/><path id="Shape-5" data-name="Shape" class="cls-1" d="M42.9,3.5a2.54,2.54,0,0,1,2.3.9A2.86,2.86,0,0,1,46,6.7a3.07,3.07,0,0,1-.8,2.4,2.81,2.81,0,0,1-2.3.9,2.94,2.94,0,0,1-2.3-.9,2.86,2.86,0,0,1-.8-2.3,2.74,2.74,0,0,1,.8-2.3A3,3,0,0,1,42.9,3.5Zm0,5.2c.8,0,1.3-.5,1.3-2.1A2,2,0,0,0,44,5.3a1.9,1.9,0,0,0-1.1-.7c-1.3,0-1.3,1.5-1.3,2.1,0,1.4.5,2,1.3,2Z" transform="translate(-16.1 -0.76)"/><path id="Shape-6" data-name="Shape" class="cls-1" d="M47.4,4.7V3.6h1.7v.9a2,2,0,0,1,2-1,1.75,1.75,0,0,1,1.8,1.1,5.54,5.54,0,0,1,.2,1.8V9.8H51.3V6a2,2,0,0,0-.1-.7,1.06,1.06,0,0,0-1.8,0,1.49,1.49,0,0,0-.2.9V9.8H47.4V4.7Z" transform="translate(-16.1 -0.76)"/><path id="Shape-7" data-name="Shape" class="cls-1" d="M58.3,9.7V8.9a2.47,2.47,0,0,1-1.6,1,2.27,2.27,0,0,1-1.8-.5,2.11,2.11,0,0,1-.5-1.3,2.05,2.05,0,0,1,1.3-1.9,5,5,0,0,1,2.4-.3,2.2,2.2,0,0,0-.1-.8.79.79,0,0,0-.8-.5.91.91,0,0,0-.7.3.9.9,0,0,0-.1.5H54.7A1.51,1.51,0,0,1,55.4,4a3.74,3.74,0,0,1,1.8-.5,2.65,2.65,0,0,1,2.1.8,2.6,2.6,0,0,1,.4,1.5V8.3a7.57,7.57,0,0,0,.1,1.5H58.3ZM56.2,7.8a1.07,1.07,0,0,0,.2.6c.2.2.4.3.6.2a.67.67,0,0,0,.7-.4A2,2,0,0,0,58,6.7c-1,.1-1.8.4-1.8,1.1Z" transform="translate(-16.1 -0.76)"/><polygon id="Shape-8" data-name="Shape" class="cls-1" points="45.4 0.24 47.2 0.24 47.2 8.94 45.4 8.94 45.4 0.24"/><path id="Shape-9" data-name="Shape" class="cls-1" d="M72.3,1l3,8.7H73.4l-.6-1.9H69.4l-.6,1.9H67L70.1,1Zm0,5.4L71.1,2.7,69.8,6.4Z" transform="translate(-16.1 -0.76)"/><path id="Shape-10" data-name="Shape" class="cls-1" d="M77.6,8a.6.6,0,0,0,.3.6.84.84,0,0,0,.7.2.73.73,0,0,0,.6-.2.6.6,0,0,0,.3-.6c0-.3-.1-.5-.8-.7L77.6,7a1.65,1.65,0,0,1-1.5-1.7c0-1.2,1.1-1.9,2.6-1.9a2,2,0,0,1,1.5.4A2.19,2.19,0,0,1,81,5.2H79.3a.86.86,0,0,0-.3-.6.73.73,0,0,0-.6-.2.75.75,0,0,0-.5.1.55.55,0,0,0-.3.5c0,.4.3.5.8.6l1.1.3a1.83,1.83,0,0,1,1.7,1.7,2.59,2.59,0,0,1-.9,1.7,2,2,0,0,1-1.8.4A2.7,2.7,0,0,1,76.4,9,1.37,1.37,0,0,1,76,7.8l1.6.2Z" transform="translate(-16.1 -0.76)"/><path id="Shape-11" data-name="Shape" class="cls-1" d="M83.7,8a.6.6,0,0,0,.3.6.84.84,0,0,0,.7.2.73.73,0,0,0,.6-.2.6.6,0,0,0,.3-.6c0-.3-.1-.5-.8-.7L83.7,7a1.65,1.65,0,0,1-1.5-1.7c0-1.2,1.1-1.9,2.6-1.9a2,2,0,0,1,1.5.4,2.19,2.19,0,0,1,.8,1.4H85.4a.86.86,0,0,0-.3-.6.73.73,0,0,0-.6-.2.75.75,0,0,0-.5.1.85.85,0,0,0-.3.5c0,.4.3.5.8.6l1.1.3a1.83,1.83,0,0,1,1.7,1.7,2.59,2.59,0,0,1-.9,1.7,2,2,0,0,1-1.8.4A2.7,2.7,0,0,1,82.5,9a1.37,1.37,0,0,1-.4-1.2l1.6.2Z" transform="translate(-16.1 -0.76)"/><path id="Shape-12" data-name="Shape" class="cls-1" d="M91.4,3.5a2.54,2.54,0,0,1,2.3.9,2.86,2.86,0,0,1,.8,2.3,3.07,3.07,0,0,1-.8,2.4,2.81,2.81,0,0,1-2.3.9,2.94,2.94,0,0,1-2.2-.9,2.86,2.86,0,0,1-.8-2.3,2.74,2.74,0,0,1,.8-2.3A2.7,2.7,0,0,1,91.4,3.5Zm0,5.2c.8,0,1.3-.5,1.3-2.1a2,2,0,0,0-.2-1.3,1.9,1.9,0,0,0-1.1-.7c-1.3,0-1.3,1.5-1.3,2.1,0,1.4.5,2,1.3,2Z" transform="translate(-16.1 -0.76)"/><path id="Shape-13" data-name="Shape" class="cls-1" d="M99.1,5.8a1,1,0,0,0-.8-1.1c-.8,0-.9,1.3-.9,1.9a4.06,4.06,0,0,0,.4,1.9.76.76,0,0,0,.5.2c.2,0,.7,0,.8-1.2h1.7a2.5,2.5,0,0,1-.8,1.8,2.72,2.72,0,0,1-1.7.6,2.17,2.17,0,0,1-2-.8,4.07,4.07,0,0,1-.8-2.4,2.58,2.58,0,0,1,.7-2.2,2.72,2.72,0,0,1,2.1-.9,2.11,2.11,0,0,1,1.7.6,2.06,2.06,0,0,1,.7,1.7l-1.6-.1Z" transform="translate(-16.1 -0.76)"/><path id="Shape-14" data-name="Shape" class="cls-1" d="M102,1h1.9V2.5H102Zm0,2.6h1.8V9.7H102Z" transform="translate(-16.1 -0.76)"/><path id="Shape-15" data-name="Shape" class="cls-1" d="M109.1,9.7V8.9a2.47,2.47,0,0,1-1.6,1,2.27,2.27,0,0,1-1.8-.5,2.11,2.11,0,0,1-.5-1.3,2.05,2.05,0,0,1,1.3-1.9,5,5,0,0,1,2.4-.3,2.2,2.2,0,0,0-.1-.8.79.79,0,0,0-.8-.5.91.91,0,0,0-.7.3.9.9,0,0,0-.1.5h-1.7a1.51,1.51,0,0,1,.7-1.4,3.74,3.74,0,0,1,1.8-.5,2.65,2.65,0,0,1,2.1.8,2.6,2.6,0,0,1,.4,1.5V8.3a7.57,7.57,0,0,0,.1,1.5h-1.5Zm-2.2-1.9a1.07,1.07,0,0,0,.2.6c.2.2.4.3.6.2a.67.67,0,0,0,.7-.4,2,2,0,0,0,.3-1.5c-1,.1-1.8.4-1.8,1.1Z" transform="translate(-16.1 -0.76)"/><path id="Shape-16" data-name="Shape" class="cls-1" d="M115.7,9.6a5.9,5.9,0,0,1-1.4.2,1.25,1.25,0,0,1-1.3-.4,1.57,1.57,0,0,1-.4-1.3V4.7h-1.2V3.5h1.2V2.4l1.7-.7V3.5h1.4V4.7h-1.4V7.4c0,.6,0,.9.8.9h.6V9.6Z" transform="translate(-16.1 -0.76)"/><path id="Shape-17" data-name="Shape" class="cls-1" d="M116.9,1h1.9V2.5h-1.9Zm0,2.6h1.8V9.7h-1.8Z" transform="translate(-16.1 -0.76)"/><path id="Shape-18" data-name="Shape" class="cls-1" d="M123.2,3.5a2.54,2.54,0,0,1,2.3.9,2.86,2.86,0,0,1,.8,2.3,3.07,3.07,0,0,1-.8,2.4,2.81,2.81,0,0,1-2.3.9,2.94,2.94,0,0,1-2.3-.9,2.86,2.86,0,0,1-.8-2.3,2.74,2.74,0,0,1,.8-2.3,3,3,0,0,1,2.3-1Zm0,5.2c.8,0,1.3-.5,1.3-2.1a2,2,0,0,0-.2-1.3,1.9,1.9,0,0,0-1.1-.7c-1.3,0-1.3,1.5-1.3,2.1,0,1.4.5,2,1.3,2Z" transform="translate(-16.1 -0.76)"/><path id="Shape-19" data-name="Shape" class="cls-1" d="M127.6,4.7V3.6h1.7v.9a2.31,2.31,0,0,1,2-1.1,1.75,1.75,0,0,1,1.8,1.1,5.54,5.54,0,0,1,.2,1.8V9.7h-1.8V6a2,2,0,0,0-.1-.7,1.06,1.06,0,0,0-1.8,0,1.49,1.49,0,0,0-.2.9V9.8h-1.8V4.7Z" transform="translate(-16.1 -0.76)"/><path id="Shape-20" data-name="Shape" class="cls-1" d="M140.6,3.5a2.54,2.54,0,0,1,2.3.9,2.86,2.86,0,0,1,.8,2.3,3.07,3.07,0,0,1-.8,2.4,2.81,2.81,0,0,1-2.3.9,2.94,2.94,0,0,1-2.3-.9,2.86,2.86,0,0,1-.8-2.3,2.74,2.74,0,0,1,.8-2.3A2.73,2.73,0,0,1,140.6,3.5Zm0,5.2c.8,0,1.3-.5,1.3-2.1a2,2,0,0,0-.2-1.3,1.9,1.9,0,0,0-1.1-.7c-1.3,0-1.3,1.5-1.3,2.1,0,1.4.5,2,1.3,2Z" transform="translate(-16.1 -0.76)"/><path id="Shape-21" data-name="Shape" class="cls-1" d="M145.3,4.9h-.9V3.6h.9V2.8a1.84,1.84,0,0,1,.5-1.6,1.8,1.8,0,0,1,1.6-.4h.9V2h-.4c-.9,0-.9.5-.9.8v.7h1.1V4.8H147V9.6h-1.7V4.9Z" transform="translate(-16.1 -0.76)"/><polygon id="Shape-22" data-name="Shape" class="cls-1" points="0 14.84 5.5 14.84 5.5 16.14 1.8 16.14 1.8 18.34 5.3 18.34 5.3 19.74 1.8 19.74 1.8 23.44 0 23.44 0 14.84"/><path id="Shape-23" data-name="Shape" class="cls-1" d="M24.1,21.7a1.39,1.39,0,0,0,.2,1.1,1.23,1.23,0,0,0,1,.5.91.91,0,0,0,1-.8H28a1.61,1.61,0,0,1-.6,1.3,2.7,2.7,0,0,1-2.1.7,2.78,2.78,0,0,1-2.1-.8,4,4,0,0,1,.5-5.3,3.37,3.37,0,0,1,1.7-.5,2.51,2.51,0,0,1,2.4,1.5,5.7,5.7,0,0,1,.4,2.2H24.1Zm2.2-1.1a1,1,0,0,0-.2-.9.91.91,0,0,0-.8-.4,1.8,1.8,0,0,0-.9.4,1.61,1.61,0,0,0-.3.9Z" transform="translate(-16.1 -0.76)"/><path id="Shape-24" data-name="Shape" class="cls-1" d="M33.5,15.6h1.8v8.7H33.6v-.9a1.34,1.34,0,0,1-.6.7,2.38,2.38,0,0,1-1.2.3,2.52,2.52,0,0,1-2-.9,2.74,2.74,0,0,1-.6-2.1,2.86,2.86,0,0,1,.6-2.2,2.61,2.61,0,0,1,2-1,2.14,2.14,0,0,1,1.7.8V15.6Zm-1.4,7.6a1.23,1.23,0,0,0,1.1-.7,3.19,3.19,0,0,0,.3-1.4,1.64,1.64,0,0,0-.2-1.2,1.25,1.25,0,0,0-1.1-.6c-1.2,0-1.3,1.4-1.3,2a1.64,1.64,0,0,0,.2,1.2A1.2,1.2,0,0,0,32.1,23.2Z" transform="translate(-16.1 -0.76)"/><path id="Shape-25" data-name="Shape" class="cls-1" d="M38.3,21.7a1.39,1.39,0,0,0,.2,1.1,1.23,1.23,0,0,0,1,.5.91.91,0,0,0,1-.8h1.7a1.61,1.61,0,0,1-.6,1.3,2.7,2.7,0,0,1-2.1.7,2.78,2.78,0,0,1-2.1-.8,4,4,0,0,1,.5-5.3,3.37,3.37,0,0,1,1.7-.5A2.51,2.51,0,0,1,42,19.4a5.7,5.7,0,0,1,.4,2.2l-4.1.1Zm2.2-1.1a1,1,0,0,0-.2-.9.91.91,0,0,0-.8-.4,1.8,1.8,0,0,0-.9.4c-.3.2-.3.6-.3.9Z" transform="translate(-16.1 -0.76)"/><path id="Shape-26" data-name="Shape" class="cls-1" d="M43.6,19.7a7.57,7.57,0,0,0-.1-1.5h1.7v1.2a2,2,0,0,1,2-1.2v1.7c-1.8-.2-1.9.8-1.9,1.5v3H43.6Z" transform="translate(-16.1 -0.76)"/><path id="Shape-27" data-name="Shape" class="cls-1" d="M51.9,24.3v-.8a2.47,2.47,0,0,1-1.6,1,2.38,2.38,0,0,1-1.8-.5,2.11,2.11,0,0,1-.5-1.3,2.05,2.05,0,0,1,1.3-1.9,5,5,0,0,1,2.4-.3,2.2,2.2,0,0,0-.1-.8.79.79,0,0,0-.8-.5.69.69,0,0,0-.8.8H48.3a1.51,1.51,0,0,1,.7-1.4,3.74,3.74,0,0,1,1.8-.5,2.65,2.65,0,0,1,2.1.8,2.6,2.6,0,0,1,.4,1.5v2.5a7.57,7.57,0,0,0,.1,1.5H51.9Zm-2.2-1.9a1.07,1.07,0,0,0,.2.6c.2.2.4.3.6.2a.67.67,0,0,0,.7-.4,2,2,0,0,0,.3-1.5c-1,0-1.8.4-1.8,1.1Z" transform="translate(-16.1 -0.76)"/><polygon id="Shape-28" data-name="Shape" class="cls-1" points="38.9 14.84 40.6 14.84 40.6 23.54 38.9 23.54 38.9 14.84"/><polygon id="Shape-29" data-name="Shape" class="cls-1" points="42.3 14.84 44.1 14.84 44.1 23.54 42.3 23.54 42.3 14.84"/><polygon id="Shape-30" data-name="Shape" class="cls-1" points="47 17.44 48.3 21.64 49.7 17.44 51.4 17.44 49.1 23.44 48.3 25.84 46.6 25.84 47.4 23.54 45.1 17.44 47 17.44"/><polygon id="Shape-31" data-name="Shape" class="cls-1" points="52 19.64 55 19.64 55 21.04 52 21.04 52 19.64"/><polygon id="Shape-32" data-name="Shape" class="cls-1" points="56.4 14.84 58.3 14.84 58.3 23.54 56.4 23.54 56.4 14.84"/><path id="Shape-33" data-name="Shape" class="cls-1" d="M76,19.3V18.2h1.7v.9a2.31,2.31,0,0,1,2-1.1,1.75,1.75,0,0,1,1.8,1.1,5.54,5.54,0,0,1,.2,1.8v3.4H79.9V20.5a2,2,0,0,0-.1-.7,1.06,1.06,0,0,0-1.8,0,1.49,1.49,0,0,0-.2.9v3.6H76v-5Z" transform="translate(-16.1 -0.76)"/><path id="Shape-34" data-name="Shape" class="cls-1" d="M84.6,22.5a.6.6,0,0,0,.3.6.84.84,0,0,0,.7.2.73.73,0,0,0,.6-.2.6.6,0,0,0,.3-.6c0-.3-.1-.5-.8-.7l-1.1-.3a1.65,1.65,0,0,1-1.5-1.7c0-1.2,1.1-1.9,2.6-1.9a2,2,0,0,1,1.5.4,2.19,2.19,0,0,1,.8,1.4H86.3a.86.86,0,0,0-.3-.6.73.73,0,0,0-.6-.2.75.75,0,0,0-.5.1.85.85,0,0,0-.3.5c0,.4.3.5.8.6l1.2.3a1.83,1.83,0,0,1,1.7,1.7,2.59,2.59,0,0,1-.9,1.7,2,2,0,0,1-1.8.4,2.65,2.65,0,0,1-2.2-.8,1.37,1.37,0,0,1-.4-1.2l1.6.3Z" transform="translate(-16.1 -0.76)"/><path id="Shape-35" data-name="Shape" class="cls-1" d="M91.2,18.2v3.6c0,.5,0,1.3.9,1.3s1.1-.9,1.1-1.9V18.1h1.7v6.2H93.2v-.8a2.23,2.23,0,0,1-1.8,1,2.34,2.34,0,0,1-1.8-.8,3.29,3.29,0,0,1-.4-1.7V18.2h2Z" transform="translate(-16.1 -0.76)"/><path id="Shape-36" data-name="Shape" class="cls-1" d="M96.8,19.7a7.57,7.57,0,0,0-.1-1.5h1.7v1.2a2,2,0,0,1,2-1.2v1.7c-1.8-.2-1.9.8-1.9,1.5v3H96.7l.1-4.7Z" transform="translate(-16.1 -0.76)"/><path id="Shape-37" data-name="Shape" class="cls-1" d="M103,21.7a1.39,1.39,0,0,0,.2,1.1,1.23,1.23,0,0,0,1,.5.91.91,0,0,0,1-.8h1.7a1.61,1.61,0,0,1-.6,1.3,2.7,2.7,0,0,1-2.1.7,2.78,2.78,0,0,1-2.1-.8,4,4,0,0,1,.5-5.3,3.37,3.37,0,0,1,1.7-.5,2.51,2.51,0,0,1,2.4,1.5,5.7,5.7,0,0,1,.4,2.2l-4.1.1Zm2.2-1.1a1,1,0,0,0-.2-.9.91.91,0,0,0-.8-.4,1.8,1.8,0,0,0-.9.4c-.3.2-.3.6-.3.9Z" transform="translate(-16.1 -0.76)"/><path id="Shape-38" data-name="Shape" class="cls-1" d="M112.3,15.6h1.8v8.7h-1.8v-.9a1.34,1.34,0,0,1-.6.7,2.38,2.38,0,0,1-1.2.3,2.52,2.52,0,0,1-2-.9,2.74,2.74,0,0,1-.6-2.1,2.86,2.86,0,0,1,.6-2.2,2.61,2.61,0,0,1,2-1,2.14,2.14,0,0,1,1.7.8l.1-3.4ZM111,23.2a1.23,1.23,0,0,0,1.1-.7,3.19,3.19,0,0,0,.3-1.4,1.64,1.64,0,0,0-.2-1.2,1.25,1.25,0,0,0-1.1-.6c-1.2,0-1.3,1.4-1.3,2a1.64,1.64,0,0,0,.2,1.2,1.26,1.26,0,0,0,1,.7Z" transform="translate(-16.1 -0.76)"/><path id="Shape-39" data-name="Shape" class="cls-1" d="M123.4,18.4a1.5,1.5,0,0,0-.4-1.1,1.39,1.39,0,0,0-1-.5c-1.4,0-1.9,1.4-1.9,3.2,0,.5,0,3,1.8,3a1.61,1.61,0,0,0,1.1-.5,1.75,1.75,0,0,0,.4-1.2h1.9a2.79,2.79,0,0,1-.8,2,3.47,3.47,0,0,1-2.5,1,3.63,3.63,0,0,1-3-1.3,3.91,3.91,0,0,1-1-3.1c0-2.8,1.5-4.6,3.9-4.6a2.93,2.93,0,0,1,2.2.7,2.87,2.87,0,0,1,1,2.2l-1.7.2Z" transform="translate(-16.1 -0.76)"/><path id="Shape-40" data-name="Shape" class="cls-1" d="M126.6,19.7V18.2h1.7v1.2a2,2,0,0,1,2-1.2v1.7c-1.8-.2-1.9.8-1.9,1.5v3h-1.8V19.7Z" transform="translate(-16.1 -0.76)"/><path id="Shape-41" data-name="Shape" class="cls-1" d="M132.8,21.7a1.39,1.39,0,0,0,.2,1.1,1.23,1.23,0,0,0,1,.5.91.91,0,0,0,1-.8h1.7a1.61,1.61,0,0,1-.6,1.3,2.7,2.7,0,0,1-2.1.7,2.78,2.78,0,0,1-2.1-.8,4,4,0,0,1,.5-5.3,3.37,3.37,0,0,1,1.7-.5,2.51,2.51,0,0,1,2.4,1.5,5.7,5.7,0,0,1,.4,2.2l-4.1.1Zm2.2-1.1a1,1,0,0,0-.2-.9.91.91,0,0,0-.8-.4,1.8,1.8,0,0,0-.9.4,1.61,1.61,0,0,0-.3.9Z" transform="translate(-16.1 -0.76)"/><path id="Shape-42" data-name="Shape" class="cls-1" d="M142.1,15.6h1.8v8.7h-1.7v-.9a1.34,1.34,0,0,1-.6.7,2.38,2.38,0,0,1-1.2.3,2.52,2.52,0,0,1-2-.9,2.74,2.74,0,0,1-.6-2.1,2.86,2.86,0,0,1,.6-2.2,2.61,2.61,0,0,1,2-1,2.14,2.14,0,0,1,1.7.8V15.6Zm-1.3,7.6a1.23,1.23,0,0,0,1.1-.7,3.19,3.19,0,0,0,.3-1.4,1.64,1.64,0,0,0-.2-1.2,1.25,1.25,0,0,0-1.1-.6c-1.2,0-1.3,1.4-1.3,2a1.64,1.64,0,0,0,.2,1.2,1.45,1.45,0,0,0,1,.7Z" transform="translate(-16.1 -0.76)"/><path id="Shape-43" data-name="Shape" class="cls-1" d="M145.5,15.6h1.9v1.5h-1.9Zm0,2.6h1.8v6.1h-1.8Z" transform="translate(-16.1 -0.76)"/><path id="Shape-44" data-name="Shape" class="cls-1" d="M152.6,24.2a5.9,5.9,0,0,1-1.4.2,1.25,1.25,0,0,1-1.3-.4,1.57,1.57,0,0,1-.4-1.3V19.3h-1.2V18.1h1.2V17l1.7-.7v1.8h1.4v1.2h-1.4v2.8c0,.6,0,.9.8.9h.6v1.2Z" transform="translate(-16.1 -0.76)"/><path id="Shape-45" data-name="Shape" class="cls-1" d="M158.4,15.6v5.3a1.77,1.77,0,0,0,.3,1.6,1.65,1.65,0,0,0,1.5.5,2,2,0,0,0,1.7-.8,4,4,0,0,0,.3-1.5V15.5H164V21a3.25,3.25,0,0,1-1.1,2.5,3.53,3.53,0,0,1-2.6.8,3.85,3.85,0,0,1-3.3-1.5,3.19,3.19,0,0,1-.4-2.1V15.5l1.8.1Z" transform="translate(-16.1 -0.76)"/><path id="Shape-46" data-name="Shape" class="cls-1" d="M165.8,19.3V18.2h1.7v.9a2.31,2.31,0,0,1,2-1.1,1.75,1.75,0,0,1,1.8,1.1,5.54,5.54,0,0,1,.2,1.8v3.4h-1.8V20.5a2,2,0,0,0-.1-.7,1.06,1.06,0,0,0-1.8,0,1.49,1.49,0,0,0-.2.9v3.6h-1.8v-5Z" transform="translate(-16.1 -0.76)"/><path id="Shape-47" data-name="Shape" class="cls-1" d="M173,15.6h1.9v1.5H173Zm0,2.6h1.8v6.1H173Z" transform="translate(-16.1 -0.76)"/><path id="Shape-48" data-name="Shape" class="cls-1" d="M179.2,18.1a2.54,2.54,0,0,1,2.3.9,2.86,2.86,0,0,1,.8,2.3,3.07,3.07,0,0,1-.8,2.4,2.81,2.81,0,0,1-2.3.9,3.1,3.1,0,0,1-2.2-.9,2.74,2.74,0,0,1-.8-2.3,2.74,2.74,0,0,1,.8-2.3,2.35,2.35,0,0,1,2.2-1Zm0,5.2c.8,0,1.3-.5,1.3-2.1a2,2,0,0,0-.2-1.3,1.9,1.9,0,0,0-1.1-.7c-1.3,0-1.3,1.5-1.3,2.1,0,1.4.4,2,1.3,2Z" transform="translate(-16.1 -0.76)"/><path id="Shape-49" data-name="Shape" class="cls-1" d="M183.7,19.3V18.2h1.7v.9a2.31,2.31,0,0,1,2-1.1,1.75,1.75,0,0,1,1.8,1.1,5.54,5.54,0,0,1,.2,1.8v3.4h-1.8V20.5a2,2,0,0,0-.1-.7,1.06,1.06,0,0,0-1.8,0,1.49,1.49,0,0,0-.2.9v3.6h-1.7v-5Z" transform="translate(-16.1 -0.76)"/><path id="Shape-50" data-name="Shape" class="cls-1" d="M192.3,22.5a.71.71,0,0,0,.3.6.84.84,0,0,0,.7.2.73.73,0,0,0,.6-.2.6.6,0,0,0,.3-.6c0-.3-.1-.5-.8-.7l-1.1-.3a1.65,1.65,0,0,1-1.5-1.7c0-1.2,1.1-1.9,2.6-1.9a2,2,0,0,1,1.5.4,2.19,2.19,0,0,1,.8,1.4H194a.86.86,0,0,0-.3-.6.73.73,0,0,0-.6-.2.75.75,0,0,0-.5.1.85.85,0,0,0-.3.5c0,.4.3.5.8.6l1.2.3a1.83,1.83,0,0,1,1.7,1.7,2.59,2.59,0,0,1-.9,1.7,2,2,0,0,1-1.8.4,2.65,2.65,0,0,1-2.2-.8,1.37,1.37,0,0,1-.4-1.2l1.6.3Z" transform="translate(-16.1 -0.76)"/></g></g></g></g></g></svg>